<svg width="2500" height="2504" viewBox="0 0 2500 2504" fill="none" xmlns="http://www.w3.org/2000/svg">
<rect width="2500" height="2504" fill="black"/>
<path d="M833.834 2504C1063.83 2504 1250.5 2317.33 1250.5 2087.33V1670.67H833.834C603.834 1670.67 417.167 1857.33 417.167 2087.33C417.167 2317.33 603.834 2504 833.834 2504Z" fill="white"/>
<path d="M417.167 1254C417.167 1024 603.834 837.333 833.834 837.333H1250.5V1670.67H833.834C603.834 1670.67 417.167 1484 417.167 1254Z" fill="white"/>
<path d="M417.167 420.667C417.167 190.667 603.834 4 833.834 4H1250.5V837.333H833.834C603.834 837.333 417.167 650.667 417.167 420.667Z" fill="white"/>
<path d="M1250.5 4H1667.17C1897.17 4 2083.83 190.667 2083.83 420.667C2083.83 650.667 1897.17 837.333 1667.17 837.333H1250.5V4Z" fill="white"/>
<path d="M2083.83 1254C2083.83 1484 1897.17 1670.67 1667.17 1670.67C1437.17 1670.67 1250.5 1484 1250.5 1254C1250.5 1024 1437.17 837.333 1667.17 837.333C1897.17 837.333 2083.83 1024 2083.83 1254Z" fill="white"/>
</svg>
