<svg width="2500" height="2246" viewBox="0 0 2500 2246" fill="none" xmlns="http://www.w3.org/2000/svg">
<path d="M1963.05 778.034C1939.57 769.978 1915.88 762.515 1892.02 755.652C1895.98 739.573 1899.64 723.422 1903 707.207C1956.76 446.202 1921.61 235.937 1801.56 166.722C1686.45 100.338 1498.2 169.553 1308.07 335.006C1289.34 351.346 1271.02 368.157 1253.13 385.423C1241.15 373.943 1228.96 362.685 1216.57 351.655C1017.31 174.729 817.583 100.181 697.656 169.602C582.661 236.172 548.6 433.849 597.006 681.202C601.823 705.697 607.26 730.066 613.314 754.285C585.054 762.312 557.76 770.866 531.648 779.968C298.044 861.409 148.851 989.06 148.851 1121.46C148.851 1258.21 309.001 1395.37 552.331 1478.53C572.061 1485.24 591.956 1491.46 611.996 1497.18C605.486 1523.28 599.706 1549.54 594.663 1575.96C548.512 1819.02 584.556 2012.01 699.248 2078.17C817.71 2146.47 1016.53 2076.26 1210.14 1907.03C1225.44 1893.65 1240.8 1879.46 1256.18 1864.59C1275.55 1883.28 1295.44 1901.43 1315.82 1919.01C1503.36 2080.38 1688.56 2145.55 1803.16 2079.21C1921.51 2010.7 1959.97 1803.37 1910.03 1551.13C1906.22 1531.86 1901.78 1512.18 1896.8 1492.14C1910.76 1488.02 1924.46 1483.77 1937.83 1479.33C2190.79 1395.53 2355.36 1260.04 2355.36 1121.46C2355.36 988.582 2201.36 860.072 1963.05 778.034Z" fill="white"/>
<path d="M1908.18 1389.86C1896.12 1393.86 1883.74 1397.72 1871.12 1401.46C1843.19 1313.05 1805.5 1219.04 1759.39 1121.93C1803.4 1027.11 1839.63 934.307 1866.78 846.469C1889.34 853.011 1911.26 859.896 1932.37 867.171C2136.56 937.451 2261.11 1041.38 2261.11 1121.46C2261.11 1206.76 2126.59 1317.49 1908.19 1389.86H1908.18ZM1817.56 1569.44C1839.64 1680.97 1842.79 1781.82 1828.17 1860.65C1815.02 1931.49 1788.6 1978.72 1755.92 1997.63C1686.38 2037.88 1537.67 1985.56 1377.31 1847.56C1358.92 1831.74 1340.39 1814.85 1321.82 1796.98C1383.99 1728.97 1446.13 1649.91 1506.77 1562.12C1613.45 1552.66 1714.23 1537.18 1805.62 1516.06C1810.11 1534.22 1814.11 1552.03 1817.56 1569.44ZM901.095 1990.68C833.158 2014.67 779.049 2015.36 746.346 1996.5C676.739 1956.36 647.815 1801.39 687.276 1593.54C691.968 1568.97 697.341 1544.54 703.389 1520.28C793.766 1540.27 893.81 1554.65 1000.74 1563.32C1061.78 1649.23 1125.71 1728.19 1190.15 1797.34C1176.45 1810.58 1162.43 1823.49 1148.11 1836.05C1062.49 1910.89 976.707 1963.97 901.105 1990.68H901.095ZM582.817 1389.34C475.224 1352.56 386.37 1304.77 325.465 1252.62C270.741 1205.75 243.105 1159.22 243.105 1121.46C243.105 1041.12 362.895 938.633 562.681 868.977C587.758 860.273 613.083 852.304 638.626 845.082C666.242 934.893 702.461 1028.79 746.17 1123.75C701.894 1220.12 665.158 1315.52 637.288 1406.39C618.994 1401.15 600.832 1395.47 582.817 1389.34ZM689.512 663.097C648.039 451.163 675.577 291.296 744.881 251.181C818.706 208.448 981.932 269.383 1153.98 422.141C1164.97 431.906 1176.02 442.13 1187.08 452.706C1122.98 521.541 1059.63 599.907 999.118 685.313C895.343 694.932 796.002 710.38 704.678 731.073C699.052 708.542 693.995 685.873 689.512 663.088V663.097ZM1641.3 898.117C1619.73 860.857 1597.36 824.066 1574.2 787.77C1644.61 796.656 1712.06 808.472 1775.39 822.934C1756.38 883.879 1732.68 947.607 1704.77 1012.94C1684.38 974.244 1663.22 935.964 1641.3 898.117ZM1253.16 520.066C1296.64 567.164 1340.18 619.759 1383.01 676.817C1296.13 672.712 1209.1 672.692 1122.22 676.759C1165.09 620.228 1209 567.711 1253.16 520.066ZM862.532 898.761C840.887 936.307 820.12 974.353 800.25 1012.87C772.8 947.763 749.314 883.752 730.135 821.938C793.092 807.847 860.228 796.334 930.176 787.594C906.761 824.115 884.207 861.181 862.532 898.761ZM932.188 1462.05C859.925 1453.98 791.773 1443.05 728.837 1429.35C748.318 1366.45 772.321 1301.06 800.357 1234.56C820.311 1273.1 841.169 1311.17 862.913 1348.73C885.101 1387.05 908.199 1424.83 932.188 1462.05ZM1255.77 1729.51C1211.09 1681.3 1166.53 1627.98 1123.01 1570.63C1165.25 1572.29 1208.33 1573.13 1252.11 1573.13C1297.08 1573.13 1341.55 1572.12 1385.3 1570.17C1342.34 1628.56 1298.95 1681.96 1255.77 1729.51ZM1705.67 1231.17C1735.16 1298.39 1760.02 1363.43 1779.77 1425.27C1715.79 1439.87 1646.72 1451.63 1573.94 1460.36C1597.26 1423.39 1619.85 1385.95 1641.68 1348.08C1663.87 1309.59 1685.21 1270.61 1705.67 1231.17ZM1560.02 1300.99C1526.6 1359.05 1491.29 1416.02 1454.17 1471.78C1388.7 1476.46 1321.05 1478.87 1252.11 1478.87C1183.45 1478.87 1116.65 1476.74 1052.33 1472.57C1014.24 1416.93 978.268 1359.87 944.492 1301.51C910.874 1243.46 879.472 1184.15 850.355 1123.72C879.398 1063.27 910.705 1003.94 944.209 945.839V945.859C977.702 887.75 1013.39 830.934 1051.2 775.534C1116.82 770.573 1184.1 767.976 1252.12 767.976C1320.43 767.976 1387.8 770.593 1453.41 775.593C1490.83 830.907 1526.29 887.526 1559.72 945.341C1593.34 1003.31 1625.06 1062.35 1654.84 1122.38C1625.37 1183.03 1593.75 1242.6 1560.03 1300.99H1560.02ZM1754.48 248.378C1828.36 290.994 1857.1 462.832 1810.68 688.184C1807.63 702.865 1804.33 717.489 1800.75 732.049C1709.22 710.927 1609.81 695.205 1505.73 685.44C1445.1 599.106 1382.28 520.603 1319.21 452.657C1335.74 436.725 1352.66 421.207 1369.95 406.116C1532.86 264.344 1685.11 208.37 1754.48 248.378Z" fill="black"/>
<path d="M1252.11 924.424C1360.93 924.424 1449.14 1012.64 1449.14 1121.46C1449.14 1230.28 1360.93 1318.5 1252.11 1318.5C1143.29 1318.5 1055.07 1230.28 1055.07 1121.46C1055.07 1012.64 1143.29 924.424 1252.11 924.424Z" fill="white"/>
</svg>
