<svg width="64" height="64" viewBox="0 0 64 64" fill="none" xmlns="http://www.w3.org/2000/svg">
<path d="M59.0804 49.326L33.1404 64V52.574L49.3004 43.682L59.0804 49.326ZM60.8564 47.72V17.04L51.3684 22.524V42.248L60.8564 47.72ZM4.92444 49.326L30.8604 64V52.574L14.6904 43.68L4.92444 49.326ZM3.14844 47.72V17.04L12.6364 22.524V42.248L3.14844 47.72ZM4.26044 15.048L30.8604 0V11.044L13.6804 20.5L4.26044 15.048ZM59.7404 15.048L33.1404 0V11.044L50.3204 20.49L59.7404 15.048Z" fill="white"/>
<path d="M30.8601 50.4739L14.9121 41.6999V24.3319L30.8601 33.5399V50.4739ZM33.1401 50.4739L49.0901 41.7079V24.3279L33.1401 33.5399V50.4739ZM15.9921 22.3239L32.0001 13.5259L48.0081 22.3259L32.0001 31.5659L15.9921 22.3239Z" fill="white"/>
</svg>
