<svg width="601" height="600" viewBox="0 0 601 600" fill="none" xmlns="http://www.w3.org/2000/svg">
<rect x="1" width="600" height="600" fill="black"/>
<path d="M416.37 284.74C413.67 276.043 407.867 272.64 402.491 269.058C391.818 261.95 380.016 256.951 368.37 251.696C359.035 247.476 350.104 242.485 342.138 235.944C318.908 216.884 319.165 191.471 344.892 176.085C372.843 159.369 402.888 157.921 432.862 172.442C433.64 172.839 434.418 173.407 434.753 175.151C428.389 174.225 422.041 173.072 415.646 172.395C400.523 170.838 385.47 170.892 370.945 176.202C367.101 177.582 363.428 179.401 360 181.621C351.769 187.072 344.682 194.383 345.421 204.497C346.199 215.265 355.752 220.458 364.092 226.368C365.282 222.732 363.391 220.559 362.777 218.192C359.12 203.998 364.27 194.056 378.336 189.618C392.603 185.117 407.268 185.865 421.636 188.559C442.641 192.498 462.79 199.218 480.286 211.917C501.438 227.31 509.708 248.947 509.692 274.548C509.692 296.637 502.457 317.231 497.478 338.331C493.667 354.487 489.878 370.775 493.293 387.593C494.592 393.993 496.498 401.522 503.134 402.682C508.922 403.694 512.221 396.633 514.803 391.86C528.876 365.971 533.606 338.572 526.418 309.67C522.575 294.223 518.779 278.861 522.466 262.822C523.089 260.12 523.664 257.372 526.309 254.46C527.18 259.91 527.865 264.722 528.721 269.479C531.778 286.346 537.04 302.736 544.373 318.227C548.979 327.89 549.492 337.147 546.466 347.152C539.822 369.093 529.833 389.687 517.822 408.888C506.713 426.64 503.562 445.389 502.815 465.453C501.905 489.73 480.395 497.446 461.242 500.405C456.247 501.183 453.369 497.649 450.599 494.129C437.576 477.631 423.931 461.732 407.299 448.651C394.237 438.366 380.071 430.541 363.329 428.252C358.187 427.543 356.032 423.884 354.134 419.944C348.688 408.631 345.506 396.485 341.539 384.626C340.761 382.291 340.559 379.651 337.649 377.533C335.86 381.426 336.786 385.047 337.486 388.551C339.042 396.337 340.971 403.998 342.395 411.784C344.153 421.431 342.395 429.879 334.249 436.598C327.357 442.282 321.024 448.635 314.591 454.888C302.556 466.637 292.863 479.632 288.483 496.504C285.2 509.125 279.264 520.929 269.812 530.42C259.979 540.269 250.044 541.554 237.862 534.671C227.538 528.832 218.701 521.046 209.972 513.143C199.019 503.231 187.412 494.814 172.032 493.086C164.486 492.229 157.873 488.414 152.342 483.353C135.375 467.883 123.885 448.83 120.446 426.165C115.778 395.574 110.333 365.2 102.553 335.255C102.363 334.124 102.244 332.983 102.195 331.837C105.891 332.569 106.863 335.349 108.186 337.513C122.189 359.914 126.716 384.883 127.533 410.702C127.602 416.07 128.935 421.346 131.423 426.103C141.14 444.4 153.696 460.361 169.737 473.597C171.326 474.889 172.983 476.095 174.7 477.21C175.916 477.848 177.174 478.402 178.465 478.869C173.704 466.598 173.183 454.475 171.977 442.36C169.861 421.151 162.79 401.032 149.86 384.284C114.65 338.673 130.521 279.297 169.605 246.417C180.037 237.681 190.376 228.812 205.009 228.221C225.772 227.38 239.044 237.813 243.043 258.205C243.774 261.942 244.326 265.718 245.05 269.969C250.55 267.852 253.856 264.745 254.245 258.882C255.941 233.118 240.445 213.723 215.076 209.511C208.074 208.335 201.944 210.165 196.008 213.404C182.783 220.614 171.059 230.144 158.371 238.249C171.542 217.966 187.466 200.993 212.648 196.578C224.318 194.531 235.505 197.053 245.104 204.878C259.349 216.495 268.521 231.187 271.928 249.212C273.562 257.831 273.188 265.345 265.362 272.57C250.254 286.491 238.554 303.403 230.059 322.299C228.083 326.683 226.41 331.175 226.628 336.376C246.077 303.161 269.104 273.785 307.978 262.83C346.728 251.875 381.455 264.761 416.37 284.74ZM217.581 406.638C218.755 406.202 219.137 406.186 219.199 406.023C220.56 403.578 221.828 401.086 223.221 398.665C233.194 381.364 242.988 363.923 259.94 352.104C273.943 342.309 279.925 342.566 292.808 354.004C297.048 357.765 300.455 357.118 303.777 352.844C308.352 347.004 305.006 342.948 300.844 339.024C298.262 336.594 295.842 333.651 299.063 330.576C302.284 327.5 306.508 327.189 310.18 330.428C312.28 332.355 313.582 335 313.828 337.84C314.396 342.668 314.902 347.511 315.314 352.353C315.586 356.976 317.023 361.455 319.492 365.372C321.46 368.354 324.159 369.856 328.049 368.689C332.04 367.466 333.09 364.64 332.585 360.988C332.172 357.959 331.363 354.985 330.858 351.964C330.655 350.796 330.22 349.309 331.729 348.639C333.238 347.97 334.242 349.107 334.841 350.197C336.435 352.792 337.856 355.489 339.096 358.271C340.971 362.678 343.904 363.846 348.284 362.055C353.099 360.085 353.239 356.643 351.224 352.712C349.482 349.309 347.412 346.07 345.499 342.753C342.916 338.292 340.512 333.768 341.127 328.357C341.648 323.755 343.655 320.049 348.906 321.131C353.737 322.136 354.437 325.803 352.485 330.078C351.934 331.238 351.644 332.506 351.637 333.792C351.753 337.583 352.905 341.064 356.896 342.286C361.408 343.672 363.329 340.565 364.761 336.968C366.27 333.145 368.098 329.182 367.53 325.141C366.433 317.355 370.587 316.732 376.422 317.776C377.923 318.04 379.409 318.422 380.903 318.764C402.857 323.748 422.399 334.383 442.073 344.746C443.574 345.525 444.975 347.939 447.301 346.07C429.066 323.023 402.763 311.204 371.622 307.218C366.589 306.572 362.613 305.295 358.529 302.313C327.52 279.663 286.896 296.644 281.24 326.543C280.524 330.319 278.206 330.989 274.845 331.705C257.801 335.302 244.552 344.598 234.773 359.081C225.158 373.298 220.272 389.197 217.581 406.638ZM465.894 219.243C457.593 216.908 451.937 218.909 446.593 221.805C423.34 234.418 414.394 268.809 428.366 291.451C438.86 308.471 460.261 315.198 477.057 306.774C496.047 297.244 506.363 270.779 498.225 250.582C497.058 260.541 496.008 269.744 490.702 277.6C484.246 287.177 475.618 293.063 463.607 291.319C452.046 289.637 445.029 282.155 441.567 271.41C438.767 262.728 438.868 253.736 440.867 244.867C443.761 232.168 452.319 224.444 465.894 219.251V219.243ZM161.654 304.555C164.991 304.127 167.489 303.675 170.001 303.504C181.826 302.725 182.153 303.138 178.333 314.217C175.221 323.319 180.154 329.603 189.746 328.232C193.138 327.742 196.35 325.99 199.664 324.806C202.59 338.821 197.93 351.279 187.513 356.807C180.628 360.466 173.339 360.755 165.979 358.286C158.83 355.896 154.31 350.267 149.814 344.521C151.035 353.545 154.481 361.338 160.759 367.692C178.652 385.903 205.624 379.932 214.282 355.912C221.284 336.447 213.722 312.504 196.607 299.852C184.946 291.217 172.117 292.79 161.654 304.555ZM475.735 256.453C478.801 256.402 481.725 255.151 483.88 252.968C486.035 250.784 487.25 247.843 487.264 244.774C487.171 238.794 481.344 233.165 475.323 233.235C469.161 233.305 463.933 238.841 464.042 245.179C464.027 246.7 464.322 248.209 464.91 249.612C465.497 251.015 466.365 252.283 467.46 253.339C468.555 254.394 469.853 255.215 471.276 255.751C472.699 256.286 474.216 256.525 475.735 256.453V256.453ZM373.746 368.992C373.808 364.764 371.062 362.896 367.522 362.857C364.13 362.857 361.804 365.372 361.765 368.72C361.765 372.511 364.099 374.839 368.059 374.699C371.56 374.575 373.676 372.675 373.746 368.992ZM380.117 399.046C383.82 398.68 386.115 396.788 386.053 392.817C385.991 389.096 383.501 387.243 380.242 387.126C376.352 386.978 374.088 389.726 374.15 393.355C374.228 396.57 376.422 398.797 380.133 399.046H380.117ZM393.475 359.337C390.059 360.412 387.111 361.876 387.601 366.072C388.013 369.599 390.293 371.585 393.77 371.421C397.66 371.25 399.939 368.868 399.597 364.982C399.309 361.479 396.703 359.875 393.49 359.299L393.475 359.337ZM266.195 402.231C265.627 398.836 263.674 396.407 260.298 396.399C256.626 396.399 254.004 398.735 254.074 402.573C254.144 406.412 256.719 408.506 260.593 408.257C264.172 408.024 265.806 405.633 266.195 402.231ZM418.556 382.859C418.307 379.176 416.284 377.261 412.635 377.284C408.987 377.308 406.676 379.488 406.708 382.937C406.708 386.698 409.197 389.306 413.11 389.08C416.572 388.885 418.509 386.503 418.556 382.859ZM278.432 371.336C277.716 367.933 275.701 365.504 272.356 365.543C268.707 365.543 266.132 367.879 266.288 371.819C266.444 375.758 268.995 377.775 272.877 377.432C276.401 377.113 277.988 374.621 278.432 371.336V371.336ZM388.348 345.221C388.091 341.803 386.465 339.351 382.809 339.172C379.153 338.993 376.842 340.962 376.585 344.536C376.266 348.515 378.616 350.874 382.474 351.084C386.333 351.295 387.796 348.694 388.348 345.221V345.221ZM291.882 398.12C291.05 394.787 289.339 392.389 285.612 392.568C281.528 392.771 279.669 395.247 279.98 399.179C280.268 402.947 282.889 404.543 286.289 404.294C289.829 404.029 291.54 401.538 291.875 398.12H291.882ZM309.635 376.778C309.363 373.212 307.504 371.071 303.871 371.04C299.794 371.04 297.842 373.485 297.966 377.339C298.075 381.022 300.557 382.914 304.011 382.789C307.465 382.664 309.526 380.461 309.627 376.778H309.635ZM315.82 405.812C315.478 403.126 314.388 400.526 310.483 400.284C306.811 400.058 304.509 401.935 304.065 405.376C303.544 409.332 305.909 411.792 309.705 412.018C313.183 412.228 315.26 410.009 315.812 405.812H315.82Z" fill="white"/>
<path d="M62.0067 357.492C62.0067 344.497 62.0067 331.471 58.9649 318.648C56.6311 308.767 52.0723 300.74 43.7716 294.682C32.1957 286.195 21.3667 276.774 12.8248 265.095C-2.58632 244.003 -2.83526 222.864 11.4634 201.008C19.8186 188.232 31.2311 179.036 44.2384 171.593C65.7175 159.306 88.1224 148.749 108.295 134.049C119.606 125.803 132.862 120.314 147.62 120.812C156.325 121.124 157.383 122.619 153.641 130.42C138.191 162.654 121.893 194.499 107.314 227.123C91.5532 262.378 83.9759 299.914 80.1951 338.268C78.9193 351.224 78.5381 364.297 75.7841 377.082C75.4118 379.08 74.8249 381.033 74.0337 382.906C72.6957 385.825 70.6886 388.356 66.9855 387.344C63.6481 386.456 62.0222 383.918 62.0145 380.453C61.9911 372.831 62.0067 365.161 62.0067 357.492Z" fill="white"/>
<path d="M432.24 61C456.131 61.9265 478.917 68.4123 500.987 77.4986C528.386 88.7883 555.591 100.576 579.918 117.931C581.575 119.123 583.162 120.423 584.725 121.747C605.24 139.055 606.282 153.194 588.281 172.901C581.559 180.259 578.51 188.815 578.167 198.649C577.716 210.134 579.179 221.68 576.899 233.095C574.394 245.646 570.357 247.312 557.995 247.335C544.093 247.335 538.546 238.872 533.949 228.54C524.87 208.296 518.576 186.861 508.549 166.983C498.435 146.896 485.988 128.762 467.146 115.596C451.494 104.649 433.555 102.795 415.444 101.051C411.896 100.709 408.341 100.273 404.802 99.8212C398.469 98.9725 392.354 97.3296 390.799 90.0653C389.134 82.2247 391.436 75.3263 397.94 70.2965C407.976 62.4949 419.925 61.4204 432.24 61Z" fill="white"/>
<path d="M363.913 443.582C382.825 445.591 399.582 456.367 414.401 470.615C422.757 478.651 429.634 487.854 432.489 499.463C435.383 511.235 429.883 519.231 417.856 520.15C414.034 520.485 410.185 520.262 406.427 519.488C388.177 515.432 369.864 516.055 351.567 518.499C341.834 519.792 332.725 522.844 324.471 528.38C318.091 532.662 311.246 536.236 303.808 538.245C295.866 540.386 291.789 537.124 293.835 529.268C300.899 502.016 311.098 476.229 331.955 456.25C340.092 448.456 350.042 443.878 363.913 443.582Z" fill="white"/>
<path d="M196.148 109.11C202.426 101.705 209.109 98.6767 216.219 96.8547C226.558 94.1997 236.959 94.9004 247.228 97.8202C255.436 100.156 260.025 105.606 261.745 113.859C264.304 126.161 261.745 138.308 260.702 150.454C259.551 163.916 259.885 176.926 267.704 189.882C260.78 188.232 257.909 183.591 255.529 178.756C248.247 163.963 246.793 147.931 246.357 131.806C245.882 114.14 239.776 107.872 221.766 107.015C213.784 106.642 205.974 107.817 196.148 109.11Z" fill="white"/>
<path d="M306.064 164.492C296.838 155.297 297.149 146.14 299.537 136.743C302.501 125.064 305.325 113.494 303.606 101.215C302.618 94.2075 299.716 88.2357 294.815 82.5285C299.701 82.5285 303.746 82.4506 307.791 82.5285C318.224 82.7543 321.304 85.8064 321.437 96.3487C321.569 106.626 318.006 116.086 313.26 124.822C306.796 136.704 304.127 149.029 306.064 164.492Z" fill="white"/>
</svg>
