<svg width="601" height="601" viewBox="0 0 601 601" fill="none" xmlns="http://www.w3.org/2000/svg">
<path d="M601 0H1V600H601V0Z" fill="black"/>
<path d="M0 0V601H601V0H0ZM321.964 466.848C321.964 525.352 287.407 553.872 237.382 553.872C192.199 553.872 165.973 530.476 152.665 502.237L198.652 474.401C207.519 490.137 214.254 503.445 233.612 503.445C249.71 503.445 262.937 496.187 262.937 467.948V279.036H321.964V466.848ZM455.244 552.531C402.804 552.531 368.917 528.867 352.376 496.187L398.431 469.531C410.504 489.305 426.267 502.479 454.104 502.479C477.5 502.479 491.089 492.122 491.089 475.984C491.089 456.626 477.097 449.771 451.273 438.421L437.16 432.358C396.405 415.025 369.387 393.239 369.387 347.238C369.387 304.887 401.65 273.951 452.078 273.951C487.991 273.951 513.788 285.113 532.368 317.792L488.312 346.112C478.627 328.766 468.19 321.964 452.011 321.964C435.47 321.964 424.979 332.455 424.979 346.112C424.979 363.055 435.47 369.91 459.671 380.401L473.784 386.451C521.797 407.03 548.828 428.038 548.828 475.206C548.842 526.049 508.905 552.531 455.244 552.531Z" fill="white"/>
</svg>
