<svg width="548" height="549" viewBox="0 0 548 549" fill="none" xmlns="http://www.w3.org/2000/svg">
<rect width="548" height="549" fill="black"/>
<path d="M471.426 306.026C452.326 306.126 435.726 310.726 421.826 317.526C416.726 307.426 411.626 298.426 410.726 291.826C409.726 284.126 408.526 279.426 409.726 270.226C410.926 261.026 416.326 247.926 416.226 246.926C416.126 245.926 415.026 241.226 404.026 241.126C393.026 241.026 383.526 243.226 382.426 246.126C381.326 249.026 379.226 255.626 377.826 262.426C375.926 272.426 355.826 308.126 344.326 326.826C340.626 319.526 337.426 313.126 336.726 308.026C335.726 300.326 334.526 295.626 335.726 286.426C336.926 277.226 342.326 264.126 342.226 263.126C342.126 262.126 341.026 257.426 330.026 257.326C319.026 257.226 309.526 259.426 308.426 262.326C307.326 265.226 306.126 272.026 303.826 278.626C301.526 285.226 274.826 344.826 267.826 360.226C264.226 368.126 261.126 374.426 258.926 378.726C258.926 378.726 258.826 379.026 258.526 379.526C256.626 383.226 255.526 385.226 255.526 385.226C255.526 385.226 255.526 385.226 255.526 385.326C254.026 388.026 252.426 390.526 251.626 390.526C251.026 390.526 249.926 383.326 251.826 373.526C255.826 352.826 265.326 320.626 265.226 319.526C265.226 318.926 267.026 313.326 259.026 310.426C251.226 307.526 248.426 312.326 247.726 312.326C247.026 312.326 246.526 314.026 246.526 314.026C246.526 314.026 255.226 277.826 229.926 277.826C214.126 277.826 192.326 295.126 181.526 310.726C174.726 314.426 160.226 322.326 144.726 330.826C138.826 334.126 132.726 337.426 127.026 340.526C126.626 340.126 126.226 339.626 125.826 339.226C95.2262 306.526 38.6262 283.426 41.0262 239.526C41.9262 223.526 47.4262 181.526 149.726 130.526C233.926 89.0264 300.926 100.526 312.526 126.026C329.126 162.426 276.626 230.026 189.626 239.826C156.426 243.526 139.026 230.726 134.626 225.926C130.026 220.926 129.326 220.626 127.626 221.626C124.826 223.126 126.626 227.626 127.626 230.226C130.226 237.026 140.926 249.026 159.026 254.926C175.026 260.126 213.926 263.026 261.026 244.826C313.726 224.426 354.926 167.726 342.826 120.226C330.726 72.0264 250.726 56.1264 175.026 83.0264C130.026 99.0264 81.2262 124.226 46.1262 157.026C4.42622 196.026 -2.17378 229.926 0.526219 244.126C10.2262 294.526 79.7262 327.326 107.526 351.626C106.126 352.426 104.826 353.126 103.726 353.726C89.8262 360.626 36.8262 388.326 23.6262 417.626C8.62622 450.826 26.0262 474.626 37.5262 477.826C73.2262 487.726 109.926 469.926 129.626 440.526C149.326 411.126 146.926 372.926 137.826 355.426C137.726 355.226 137.626 355.026 137.426 354.826C141.026 352.726 144.726 350.526 148.326 348.426C155.426 344.226 162.426 340.326 168.426 337.126C165.026 346.426 162.526 357.526 161.326 373.526C159.826 392.326 167.526 416.726 177.626 426.326C182.126 430.526 187.426 430.626 190.826 430.626C202.626 430.626 207.926 420.826 213.826 409.226C221.026 395.026 227.526 378.526 227.526 378.526C227.526 378.526 219.426 423.126 241.426 423.126C249.426 423.126 257.526 412.726 261.126 407.426C261.126 407.526 261.126 407.526 261.126 407.526C261.126 407.526 261.326 407.226 261.726 406.526C262.526 405.226 263.026 404.426 263.026 404.426C263.026 404.426 263.026 404.326 263.026 404.226C266.226 398.626 273.426 385.926 284.126 364.826C297.926 337.626 311.226 303.626 311.226 303.626C311.226 303.626 312.426 311.926 316.526 325.726C318.926 333.826 323.926 342.726 327.926 351.326C324.726 355.826 322.726 358.326 322.726 358.326C322.726 358.326 322.726 358.326 322.826 358.426C320.226 361.826 317.426 365.526 314.326 369.126C303.426 382.126 290.426 397.026 288.626 401.326C286.526 406.426 287.026 410.126 291.026 413.126C293.926 415.326 299.126 415.626 304.426 415.326C314.226 414.626 321.126 412.226 324.526 410.726C329.826 408.826 336.026 405.926 341.826 401.626C352.526 393.726 359.026 382.426 358.426 367.526C358.126 359.326 355.426 351.126 352.126 343.426C353.126 342.026 354.026 340.626 355.026 339.226C371.926 314.526 385.026 287.426 385.026 287.426C385.026 287.426 386.226 295.726 390.326 309.526C392.326 316.526 396.426 324.126 400.026 331.526C384.126 344.426 374.326 359.426 370.826 369.226C364.526 387.426 369.426 395.626 378.726 397.526C382.926 398.426 388.926 396.426 393.326 394.526C398.926 392.726 405.526 389.626 411.826 385.026C422.526 377.126 432.826 366.126 432.226 351.226C431.926 344.426 430.126 337.726 427.626 331.226C441.126 325.626 458.526 322.526 480.726 325.126C528.326 330.726 537.726 360.426 535.926 372.926C534.126 385.426 524.126 392.226 520.826 394.326C517.526 396.426 516.426 397.126 516.726 398.626C517.126 400.826 518.726 400.726 521.526 400.326C525.426 399.626 546.526 390.226 547.426 367.226C548.926 337.826 520.926 305.726 471.426 306.026ZM104.226 429.826C88.4262 447.026 66.4262 453.526 56.9262 448.026C46.7262 442.126 50.7262 416.726 70.1262 398.526C81.9262 387.426 97.1262 377.126 107.226 370.826C109.526 369.426 112.926 367.426 117.026 364.926C117.726 364.526 118.126 364.326 118.126 364.326C118.926 363.826 119.726 363.326 120.526 362.826C127.626 388.826 120.826 411.726 104.226 429.826ZM219.226 351.626C213.726 365.026 202.226 399.326 195.226 397.426C189.226 395.826 185.526 369.826 194.026 344.126C198.326 331.226 207.426 315.826 212.726 309.826C221.326 300.226 230.826 297.026 233.126 300.926C236.026 306.026 222.626 343.226 219.226 351.626ZM314.126 397.026C311.826 398.226 309.626 399.026 308.626 398.426C307.926 398.026 309.626 396.426 309.626 396.426C309.626 396.426 321.526 383.626 326.226 377.826C328.926 374.426 332.126 370.426 335.526 365.926C335.526 366.326 335.526 366.826 335.526 367.226C335.526 382.526 320.726 392.826 314.126 397.026ZM387.326 380.326C385.626 379.126 385.926 375.126 391.626 362.626C393.826 357.726 399.026 349.526 407.926 341.626C408.926 344.826 409.626 347.926 409.526 350.826C409.426 370.126 395.626 377.326 387.326 380.326Z" fill="white"/>
</svg>
